<?xml version="1.0" encoding="UTF-8" standalone="no"?>
<!-- Created with Inkscape (http://www.inkscape.org/) -->

<svg
   width="8.5in"
   height="8.5in"
   viewBox="0 0 215.9 215.9"
   version="1.1"
   id="svg5"
   inkscape:version="1.1.2 (0a00cf5339, 2022-02-04, custom)"
   sodipodi:docname="dumbbell.svg"
   xmlns:inkscape="http://www.inkscape.org/namespaces/inkscape"
   xmlns:sodipodi="http://sodipodi.sourceforge.net/DTD/sodipodi-0.dtd"
   xmlns="http://www.w3.org/2000/svg"
   xmlns:svg="http://www.w3.org/2000/svg">
  <sodipodi:namedview
     id="namedview7"
     pagecolor="#ffffff"
     bordercolor="#666666"
     borderopacity="1.0"
     inkscape:pageshadow="2"
     inkscape:pageopacity="0.0"
     inkscape:pagecheckerboard="0"
     inkscape:document-units="px"
     showgrid="false"
     units="in"
     height="8.5in"
     inkscape:zoom="1"
     inkscape:cx="374.5"
     inkscape:cy="385"
     inkscape:window-width="1920"
     inkscape:window-height="1009"
     inkscape:window-x="1600"
     inkscape:window-y="0"
     inkscape:window-maximized="1"
     inkscape:current-layer="g151" />
  <defs
     id="defs2" />
  <g
     inkscape:label="Layer 1"
     inkscape:groupmode="layer"
     id="layer1">
    <g
       id="g151"
       transform="matrix(0.52386475,0,0,0.52386475,49.623219,57.202819)">
      <path
         style="fill:#bdbdbd;stroke-width:0.0846667"
         d="m 113.5317,269.62837 c 0.1503,-0.0187 0.417,-0.019 0.59267,-8.5e-4 0.17566,0.0183 0.0527,0.0336 -0.27328,0.034 -0.32597,0 -0.46969,-0.0146 -0.31939,-0.0333 z m 6.60589,0 c 0.15134,-0.0188 0.39899,-0.0188 0.55033,0 0.15134,0.0188 0.0275,0.0341 -0.27517,0.0341 -0.30268,0 -0.4265,-0.0154 -0.27516,-0.0341 z m -9.525,-0.0818 c 0.0815,-0.0213 0.21484,-0.0213 0.29633,0 0.0815,0.0213 0.0148,0.0387 -0.14817,0.0387 -0.16298,0 -0.22966,-0.0174 -0.14816,-0.0387 z m 12.7,0 c 0.0815,-0.0213 0.21484,-0.0213 0.29633,0 0.0815,0.0213 0.0148,0.0387 -0.14817,0.0387 -0.16298,0 -0.22965,-0.0174 -0.14816,-0.0387 z m -14.605,-0.0824 c 0.0582,-0.0235 0.15345,-0.0235 0.21166,0 0.0582,0.0235 0.0106,0.0427 -0.10583,0.0427 -0.11642,0 -0.16404,-0.0192 -0.10583,-0.0427 z m 16.59466,0 c 0.0582,-0.0235 0.15346,-0.0235 0.21167,0 0.0582,0.0235 0.0106,0.0427 -0.10583,0.0427 -0.11642,0 -0.16404,-0.0192 -0.10584,-0.0427 z m -18.20333,-0.0847 c 0.0582,-0.0235 0.15346,-0.0235 0.21167,0 0.0582,0.0235 0.0106,0.0427 -0.10584,0.0427 -0.11641,0 -0.16404,-0.0192 -0.10583,-0.0427 z m 19.812,0 c 0.0582,-0.0235 0.15346,-0.0235 0.21167,0 0.0582,0.0235 0.0106,0.0427 -0.10584,0.0427 -0.11641,0 -0.16404,-0.0192 -0.10583,-0.0427 z m -21.07671,-0.0864 c 0.0611,-0.0245 0.13415,-0.0215 0.16228,0.007 0.0281,0.0281 -0.0219,0.0482 -0.11112,0.0445 -0.0986,-0.004 -0.1187,-0.0241 -0.0512,-0.0512 z m 22.43138,0.002 c 0.0582,-0.0235 0.15346,-0.0235 0.21166,0 0.0582,0.0235 0.0106,0.0427 -0.10583,0.0427 -0.11642,0 -0.16404,-0.0192 -0.10583,-0.0427 z m -23.70138,-0.0864 c 0.0611,-0.0245 0.13415,-0.0215 0.16228,0.007 0.0281,0.0281 -0.0219,0.0482 -0.11112,0.0445 -0.0986,-0.004 -0.1187,-0.0241 -0.0512,-0.0512 z m 24.97667,0 c 0.0611,-0.0245 0.13414,-0.0215 0.16228,0.007 0.0281,0.0281 -0.0219,0.0482 -0.11113,0.0445 -0.0986,-0.004 -0.11869,-0.0241 -0.0512,-0.0512 z m 1.10067,-0.0847 c 0.0611,-0.0245 0.13414,-0.0214 0.16228,0.007 0.0281,0.0281 -0.0219,0.0482 -0.11113,0.0445 -0.0986,-0.004 -0.11869,-0.0241 -0.0512,-0.0512 z m 1.016,-0.0847 c 0.0611,-0.0245 0.13414,-0.0215 0.16228,0.007 0.0281,0.0281 -0.0219,0.0482 -0.11113,0.0445 -0.0986,-0.004 -0.11869,-0.0241 -0.0512,-0.0512 z m -30.14134,-0.0847 c 0.0611,-0.0245 0.13415,-0.0214 0.16228,0.007 0.0281,0.0281 -0.0219,0.0482 -0.11112,0.0445 -0.0986,-0.004 -0.1187,-0.0241 -0.0512,-0.0512 z m 31.07267,0 c 0.0611,-0.0245 0.13414,-0.0214 0.16228,0.007 0.0281,0.0281 -0.0219,0.0482 -0.11113,0.0445 -0.0986,-0.004 -0.11869,-0.0241 -0.0512,-0.0512 z M 34.419156,185.21331 c 2.925665,-0.0123 7.688165,-0.0123 10.583333,1e-5 2.89516,0.0123 0.50143,0.0224 -5.319404,0.0224 -5.820833,-10e-6 -8.189603,-0.0101 -5.263929,-0.0225 z m 155.610764,0 c 2.87549,-0.0123 7.58084,-0.0123 10.45633,0 2.8755,0.0124 0.52282,0.0225 -5.22816,0.0225 -5.75099,0 -8.10366,-0.0101 -5.22817,-0.0225 z m 22.84552,-11.16189 c 0.004,-0.0986 0.0241,-0.1187 0.0512,-0.0512 0.0245,0.0611 0.0215,0.13415 -0.007,0.16228 -0.0281,0.0281 -0.0482,-0.0219 -0.0445,-0.11112 z m -35.39067,-0.33867 c 0.004,-0.0986 0.0241,-0.1187 0.0512,-0.0512 0.0245,0.0611 0.0215,0.13415 -0.007,0.16228 -0.0281,0.0281 -0.0482,-0.0219 -0.0445,-0.11112 z M 21.648873,104.8858 c 0,-37.393034 0.0096,-52.677518 0.02138,-33.965524 0.01176,18.711994 0.01176,49.306294 0,67.987334 -0.01176,18.68104 -0.02138,3.37122 -0.02138,-34.02181 z m 191.346667,0 c 0,-37.299901 0.01,-52.546285 0.0214,-33.880857 0.0118,18.665427 0.0118,49.183527 0,67.817997 -0.0118,18.63448 -0.0214,3.36276 -0.0214,-33.93714 z m -221.2627531,41.275 c 0,-0.11642 0.019219,-0.16404 0.042706,-0.10583 0.023486,0.0582 0.023486,0.15346 0,0.21166 -0.023487,0.0582 -0.042706,0.0106 -0.042706,-0.10583 z m 25.0676071,-0.16933 c 0,-0.16299 0.01742,-0.22966 0.03872,-0.14817 0.0213,0.0815 0.0213,0.21484 0,0.29633 -0.02129,0.0815 -0.03872,0.0148 -0.03872,-0.14816 z m 200.915716,-0.29634 c 9.3e-4,-0.18626 0.0183,-0.2525 0.0385,-0.14717 0.0203,0.10531 0.0195,0.25771 -0.002,0.33866 -0.0212,0.081 -0.0378,-0.005 -0.0368,-0.19149 z m 24.7433,-40.80933 c 0,-22.6314 0.01,-31.87706 0.0215,-20.545908 0.0118,11.331152 0.0118,29.847748 0,41.147998 -0.0118,11.30025 -0.0215,2.02931 -0.0215,-20.60209 z m -255.158534,28.1785 c 0.06112,-0.0245 0.134144,-0.0215 0.162278,0.007 0.02813,0.0281 -0.02187,0.0481 -0.111125,0.0445 -0.09863,-0.004 -0.118694,-0.0241 -0.05115,-0.0512 z m 259.418674,0 c 0.0611,-0.0245 0.13414,-0.0215 0.16228,0.007 0.0281,0.0281 -0.0219,0.0481 -0.11113,0.0445 -0.0986,-0.004 -0.11869,-0.0241 -0.0512,-0.0512 z M -11.794748,104.84347 c 0,-15.529987 0.0097,-21.883162 0.02166,-14.11817 0.01192,7.764992 0.01192,20.47134 0,28.23633 -0.01192,7.765 -0.02166,1.41182 -0.02166,-14.11816 z m 257.725338,0 c 0,-15.529987 0.01,-21.883162 0.0217,-14.11817 0.0119,7.764992 0.0119,20.47134 0,28.23633 -0.0119,7.765 -0.0217,1.41182 -0.0217,-14.11816 z m 37.98018,11.21128 c 0.004,-0.0986 0.0241,-0.1187 0.0512,-0.0512 0.0245,0.0611 0.0215,0.13415 -0.007,0.16228 -0.0281,0.0281 -0.0482,-0.0219 -0.0445,-0.11112 z m 0.0847,-1.10067 c 0.004,-0.0986 0.0241,-0.11869 0.0512,-0.0512 0.0245,0.0611 0.0215,0.13414 -0.007,0.16228 -0.0281,0.0281 -0.0481,-0.0219 -0.0445,-0.11113 z m -333.840672,-0.16933 c 0.0041,-0.0986 0.02413,-0.1187 0.05115,-0.0512 0.02446,0.0611 0.02145,0.13415 -0.0067,0.16228 -0.02813,0.0281 -0.04814,-0.0219 -0.04447,-0.11112 z m 333.925332,-1.016 c 0.004,-0.0986 0.0241,-0.1187 0.0512,-0.0512 0.0245,0.0611 0.0215,0.13415 -0.007,0.16228 -0.0281,0.0281 -0.0482,-0.0219 -0.0445,-0.11112 z m -334.009998,-0.254 c 0.0041,-0.0986 0.02412,-0.1187 0.05115,-0.0512 0.02446,0.0611 0.02145,0.13415 -0.0067,0.16228 -0.02813,0.0281 -0.04814,-0.0219 -0.04447,-0.11112 z M 284.1648,112.41408 c 0.004,-0.0986 0.0241,-0.11869 0.0512,-0.0511 0.0245,0.0611 0.0214,0.13414 -0.007,0.16228 -0.0281,0.0281 -0.0482,-0.0219 -0.0445,-0.11113 z m -334.172651,-0.20461 c 0,-0.11642 0.01922,-0.16404 0.0427,-0.10584 0.02349,0.0582 0.02349,0.15346 0,0.21167 -0.02349,0.0582 -0.0427,0.0106 -0.0427,-0.10583 z m 334.267141,-1.31234 c 0.002,-0.1397 0.0207,-0.18659 0.0422,-0.10422 0.0215,0.0824 0.0201,0.19668 -0.003,0.254 -0.0232,0.0573 -0.0408,-0.0101 -0.039,-0.14978 z M -50.092548,110.6008 c 0,-0.11642 0.01922,-0.16404 0.0427,-0.10583 0.02349,0.0582 0.02349,0.15346 0,0.21166 -0.02349,0.0582 -0.0427,0.0106 -0.0427,-0.10583 z m 334.439618,-1.60867 c 0,-0.16298 0.0174,-0.22965 0.0387,-0.14816 0.0213,0.0815 0.0213,0.21484 0,0.29633 -0.0213,0.0815 -0.0387,0.0148 -0.0387,-0.14817 z m -334.516301,-0.381 c 9.39e-4,-0.18626 0.01828,-0.2525 0.03853,-0.14717 0.02025,0.10531 0.01948,0.25771 -0.0017,0.33866 -0.02119,0.081 -0.03776,-0.005 -0.03682,-0.19149 z m 20.474666,0.0776 c 0.0041,-0.0986 0.02413,-0.1187 0.05115,-0.0512 0.02446,0.0611 0.02145,0.13415 -0.0067,0.16228 -0.02813,0.0281 -0.04814,-0.0219 -0.04447,-0.11112 z m -0.07798,-1.13595 c 0,-0.11642 0.01922,-0.16404 0.04271,-0.10583 0.02349,0.0582 0.02349,0.15346 0,0.21166 -0.02349,0.0582 -0.04271,0.0106 -0.04271,-0.10583 z m 293.370005,0 c 0,-0.11642 0.0192,-0.16404 0.0427,-0.10583 0.0235,0.0582 0.0235,0.15346 0,0.21166 -0.0235,0.0582 -0.0427,0.0106 -0.0427,-0.10583 z m 20.84,-1.27 c 0,-0.25612 0.0159,-0.36089 0.0353,-0.23283 0.0194,0.12806 0.0194,0.33761 0,0.46566 -0.0194,0.12806 -0.0353,0.0233 -0.0353,-0.23283 z m -334.684924,-0.71967 c 3.39e-4,-0.32596 0.01568,-0.44894 0.03401,-0.27328 0.01833,0.17567 0.01802,0.44237 -6.77e-4,0.59267 -0.0187,0.1503 -0.0337,0.007 -0.03332,-0.31939 z M 263.69968,104.8858 c 0,-0.46567 0.0144,-0.64536 0.0316,-0.39933 0.0172,0.24604 0.017,0.62704 0,0.84667 -0.0174,0.21963 -0.0314,0.0183 -0.0312,-0.44734 z m -293.53974,-0.0423 c 0,-0.44239 0.01427,-0.62336 0.03171,-0.40217 0.01744,0.22119 0.01744,0.58314 0,0.80433 -0.01744,0.2212 -0.03171,0.0402 -0.03171,-0.40216 z m 0.06751,-2.62467 c 0,-0.11642 0.01922,-0.16404 0.04271,-0.10583 0.02349,0.0582 0.02349,0.15345 0,0.21166 -0.02349,0.0582 -0.04271,0.0106 -0.04271,-0.10583 z m 293.36332,-0.0494 c 0.004,-0.0986 0.0241,-0.11869 0.0512,-0.0511 0.0245,0.0611 0.0215,0.13414 -0.007,0.16228 -0.0281,0.0281 -0.0482,-0.0219 -0.0445,-0.11113 z M -50.247467,99.0438 c 3.39e-4,-0.325967 0.01568,-0.448945 0.03401,-0.273279 0.01833,0.175667 0.01802,0.442367 -6.77e-4,0.592667 -0.0187,0.1503 -0.0337,0.0066 -0.03332,-0.319388 z M 284.43746,98.324133 c 0,-0.256116 0.0159,-0.360891 0.0353,-0.232833 0.0194,0.128058 0.0194,0.337608 0,0.465667 -0.0194,0.128058 -0.0353,0.02328 -0.0353,-0.232834 z m -334.6084,-2.370666 c 0,-0.162984 0.01742,-0.229659 0.03872,-0.148167 0.0213,0.08149 0.0213,0.214842 0,0.296333 -0.0213,0.08149 -0.03872,0.01482 -0.03872,-0.148166 z M 284.34707,95.6148 c 0,-0.162983 0.0174,-0.229658 0.0387,-0.148167 0.0213,0.08149 0.0213,0.214842 0,0.296334 -0.0213,0.08149 -0.0387,0.01482 -0.0387,-0.148167 z M -50.092548,94.006133 c 0,-0.116416 0.01922,-0.164041 0.0427,-0.105833 0.02349,0.05821 0.02349,0.153458 0,0.211667 -0.02349,0.05821 -0.0427,0.01058 -0.0427,-0.105834 z M 284.25926,93.7098 c 0.002,-0.1397 0.0207,-0.186597 0.0422,-0.104225 0.0215,0.08238 0.0201,0.196681 -0.003,0.254 -0.0232,0.05733 -0.0408,-0.01008 -0.039,-0.149775 z M -50.007881,92.397467 c 0,-0.116417 0.01922,-0.164042 0.0427,-0.105834 0.02349,0.05821 0.02349,0.153459 0,0.211667 -0.02349,0.05821 -0.0427,0.01058 -0.0427,-0.105833 z m 334.179341,-0.254 c 0,-0.116417 0.0192,-0.164042 0.0427,-0.105834 0.0235,0.05821 0.0235,0.153459 0,0.211667 -0.0235,0.05821 -0.0427,0.01058 -0.0427,-0.105833 z M -49.923215,91.0428 c 0,-0.116417 0.01922,-0.164042 0.0427,-0.105834 0.02349,0.05821 0.02349,0.153459 0,0.211667 -0.02349,0.05821 -0.0427,0.01058 -0.0427,-0.105833 z M 284.0801,90.82408 c 0.004,-0.09864 0.0241,-0.118694 0.0512,-0.05115 0.0245,0.06112 0.0215,0.134146 -0.007,0.16228 -0.0281,0.02814 -0.0482,-0.02188 -0.0445,-0.111125 z m -333.925332,-1.016 c 0.0041,-0.09864 0.02413,-0.118694 0.05115,-0.05116 0.02446,0.06112 0.02145,0.134146 -0.0067,0.16228 -0.02813,0.02813 -0.04814,-0.02188 -0.04447,-0.111125 z M 283.99544,89.638747 c 0.004,-0.09864 0.0241,-0.118694 0.0512,-0.05116 0.0245,0.06112 0.0215,0.134146 -0.007,0.162281 -0.0281,0.02814 -0.0481,-0.02188 -0.0445,-0.111125 z M -49.760565,88.707414 c 0.0041,-0.09864 0.02412,-0.118694 0.05115,-0.05116 0.02446,0.06112 0.02145,0.134146 -0.0067,0.162281 -0.02813,0.02813 -0.04814,-0.02188 -0.04447,-0.111125 z M 283.91077,88.53808 c 0.004,-0.09864 0.0241,-0.118694 0.0512,-0.05115 0.0245,0.06112 0.0215,0.134146 -0.007,0.16228 -0.0281,0.02814 -0.0482,-0.02188 -0.0445,-0.111125 z m -333.502002,-1.778 c 0.0041,-0.09864 0.02412,-0.118694 0.05115,-0.05116 0.02446,0.06112 0.02145,0.134146 -0.0067,0.16228 -0.02813,0.02813 -0.04814,-0.02188 -0.04447,-0.111125 z M 217.71782,64.034133 c 0,-0.20955 0.0165,-0.295275 0.0367,-0.1905 0.0202,0.104775 0.0202,0.276225 0,0.381 -0.0202,0.104775 -0.0367,0.01905 -0.0367,-0.1905 z M 16.797253,63.737799 c 0.0017,-0.1397 0.0207,-0.186596 0.04217,-0.104224 0.02146,0.08238 0.02006,0.19668 -0.0031,0.254 -0.02319,0.05733 -0.04075,-0.01008 -0.03903,-0.149776 z M -8.2672131,63.526133 c 0,-0.116417 0.019219,-0.164042 0.042706,-0.105834 0.023486,0.05821 0.023486,0.153459 0,0.211667 -0.023487,0.05821 -0.042706,0.01058 -0.042706,-0.105833 z M 177.48477,36.044746 c 0.004,-0.09864 0.0241,-0.118694 0.0512,-0.05116 0.0245,0.06112 0.0215,0.134145 -0.007,0.16228 -0.0281,0.02813 -0.0482,-0.02188 -0.0445,-0.111125 z M 130.81088,-64.547706 c 0.0611,-0.02446 0.13414,-0.02145 0.16228,0.0067 0.0281,0.02813 -0.0219,0.04815 -0.11113,0.04447 -0.0986,-0.0041 -0.11869,-0.02412 -0.0512,-0.05115 z m -26.416,-0.08467 c 0.0611,-0.02446 0.13414,-0.02145 0.16228,0.0067 0.0281,0.02813 -0.0219,0.04814 -0.11113,0.04447 -0.0986,-0.0041 -0.11869,-0.02412 -0.0511,-0.05115 z m 25.31533,0 c 0.0611,-0.02446 0.13415,-0.02145 0.16228,0.0067 0.0281,0.02813 -0.0219,0.04814 -0.11112,0.04447 -0.0986,-0.0041 -0.1187,-0.02412 -0.0512,-0.05115 z m -24.13,-0.08467 c 0.0611,-0.02446 0.13415,-0.02145 0.16228,0.0067 0.0281,0.02813 -0.0219,0.04814 -0.11112,0.04447 -0.0986,-0.0041 -0.1187,-0.02412 -0.0512,-0.05115 z m 22.94467,0 c 0.0611,-0.02446 0.13414,-0.02145 0.16228,0.0067 0.0281,0.02813 -0.0219,0.04814 -0.11113,0.04447 -0.0986,-0.0041 -0.11869,-0.02412 -0.0512,-0.05115 z m -21.59,-0.08467 c 0.0611,-0.02446 0.13414,-0.02145 0.16228,0.0067 0.0281,0.02813 -0.0219,0.04814 -0.11113,0.04447 -0.0986,-0.0041 -0.11869,-0.02412 -0.0511,-0.05115 z m 20.23533,0 c 0.0611,-0.02446 0.13415,-0.02145 0.16228,0.0067 0.0281,0.02813 -0.0219,0.04814 -0.11112,0.04447 -0.0986,-0.0041 -0.1187,-0.02412 -0.0512,-0.05115 z m -18.75735,-0.0855 c 0.0824,-0.02147 0.19668,-0.02005 0.254,0.0031 0.0573,0.02319 -0.0101,0.04076 -0.14977,0.03903 -0.1397,-0.0017 -0.1866,-0.0207 -0.10423,-0.04217 z m 17.18734,0 c 0.0824,-0.02147 0.19668,-0.02005 0.254,0.0031 0.0573,0.02319 -0.0101,0.04076 -0.14978,0.03903 -0.1397,-0.0017 -0.1866,-0.0207 -0.10422,-0.04217 z m -15.32628,-0.08436 c 0.0815,-0.0213 0.21484,-0.0213 0.29633,0 0.0815,0.0213 0.0148,0.03872 -0.14816,0.03872 -0.16299,0 -0.22966,-0.01743 -0.14817,-0.03872 z m 13.37733,0 c 0.0815,-0.0213 0.21485,-0.0213 0.29634,0 0.0815,0.0213 0.0148,0.03872 -0.14817,0.03872 -0.16298,0 -0.22966,-0.01743 -0.14817,-0.03872 z m -10.70881,-0.08766 c 0.15218,-0.01884 0.38078,-0.01846 0.508,8.64e-4 0.12722,0.01932 0.003,0.03474 -0.27669,0.03426 -0.2794,-5.08e-4 -0.38349,-0.01628 -0.23131,-0.03512 z m 7.91481,6.78e-4 c 0.12806,-0.0194 0.33761,-0.0194 0.46567,0 0.12806,0.0194 0.0233,0.03527 -0.23283,0.03527 -0.25612,0 -0.36089,-0.01587 -0.23284,-0.03527 z"
         id="path163"
         sodipodi:nodetypes="ccccccsscsssssssssssssssssssssssscccccsssscccccccccccccccccccccccccccccccssccccsccsccccscccssssscsssssssssscccccscssccsccccsccssssscsscsccccsccccsscccsccccsscccscccsssscscccssssssssssssscssccssssssssssssssssscscccsssssssscscccssssssssssssssssssssscscccsssssssssssscscccssssscscccssssscscccssssssssscssccsssscscccssssscscccssssssscssssssscscccsssssccscccssccsssssssssssssssss" />
      <path
         style="fill:#fd0000;stroke-width:0.0846667"
         d="M -94.386583,102.64213 V -108.8552 H 117.11075 328.60809 V 102.64213 314.13947 H 117.11075 -94.386583 Z M 121.68275,269.64836 c 5.89412,-0.10467 12.86244,-0.68614 19.38867,-1.61789 21.18559,-3.02464 41.6606,-10.15341 60.24033,-20.97382 16.02475,-9.33245 30.61354,-21.4757 42.74661,-35.58093 21.50077,-24.99558 35.03662,-55.39795 39.16335,-87.96325 1.59432,-12.58137 1.75221,-25.568033 0.46576,-38.31167 -2.46245,-24.393153 -10.2497,-47.831774 -22.89754,-68.918668 -5.90241,-9.8406968 -12.43668,-18.5824032 -20.44003,-27.345209 -1.8479,-2.023254 -7.84935,-8.024706 -9.8726,-9.872607 -14.27695,-13.039598 -29.78781,-23.10526 -47.15721,-30.602344 -26.04115,-11.240037 -54.64172,-15.612039 -83.312,-12.735421 -28.477917,2.857318 -55.967829,13.15292 -79.41705,29.743506 -27.8357084,19.694069 -48.984886,47.263746 -60.704368,79.133075 -5.347283,14.541111 -8.701111,30.20933 -9.777441,45.677668 -0.312707,4.494005 -0.342147,5.528522 -0.342147,12.02267 0,6.49708 0.03396,7.6886 0.342658,12.02266 2.069784,29.05936 11.569465,56.76548 27.76711,80.98367 14.7748392,22.09086 34.65514,40.4148 57.915851,53.38182 23.737994,13.23309 50.553722,20.47175 77.762047,20.99114 1.74625,0.0333 3.7465,0.0489 4.445,0.0345 0.6985,-0.0143 2.35585,-0.0454 3.683,-0.0689 z"
         id="path157" />
      <path
         style="fill:#000000;stroke-width:0.0846667"
         d="m 28.397747,185.06394 c -3.220043,-0.70486 -5.755268,-4.699 -6.555647,-10.32814 -0.08731,-0.61402 -0.108348,-14.17879 -0.108348,-69.85 0,-66.709757 0.0053,-69.125889 0.156278,-70.188668 0.705823,-4.971212 3.062909,-8.876885 5.961481,-9.878128 l 0.570908,-0.197205 h 11.303 11.303 l 0.58089,0.232571 c 2.945925,1.179474 5.098906,4.820784 5.869745,9.927429 0.147083,0.974395 0.153365,3.839997 0.153365,69.977001 0,56.64949 -0.01997,69.11971 -0.11187,69.85 -0.66471,5.28207 -3.000214,9.23555 -6.11113,10.34478 l -0.550333,0.19622 -10.964334,0.0154 c -9.040317,0.0127 -11.057805,-0.005 -11.497005,-0.10123 z m 155.708763,8.5e-4 c -1.81335,-0.39408 -3.73429,-2.24778 -4.88825,-4.71721 -0.77091,-1.64968 -1.33801,-3.74425 -1.58805,-5.86538 -0.0891,-0.75571 -0.10979,-13.90349 -0.10979,-69.723 0,-65.579366 0.007,-68.84109 0.15114,-69.850003 0.54448,-3.812743 1.79955,-6.759279 3.66042,-8.593667 0.72176,-0.711488 1.29327,-1.097373 2.17617,-1.469356 l 0.5316,-0.223977 11.00667,-0.02284 c 10.95793,-0.02275 11.00929,-0.02206 11.59933,0.154372 2.93837,0.878663 5.2522,4.569359 6.07489,9.689804 l 0.19045,1.185334 v 69.087993 c 0,56.75476 -0.02,69.2467 -0.11187,69.97701 -0.51306,4.07705 -2.10088,7.54732 -4.22756,9.2396 -0.33775,0.26877 -0.85546,0.60385 -1.15047,0.74465 -1.12034,0.53469 -0.58422,0.51245 -12.20544,0.50643 -8.55201,-0.004 -10.68427,-0.0274 -11.10924,-0.11976 z M -1.6765819,157.8787 c -1.8487644,-0.49345 -3.4404893,-1.99784 -4.6900508,-4.43273 -0.7178633,-1.39881 -1.2154239,-2.98105 -1.5914031,-5.0606 L -8.153582,147.3038 v -42.37567 c 0,-40.200399 0.0077,-42.423475 0.1504781,-43.306997 0.5976197,-3.698647 1.871743,-6.487143 3.7796471,-8.272018 0.7677658,-0.718253 1.3559959,-1.090727 2.2222121,-1.407144 l 0.6209962,-0.226838 H 4.2924182 9.965085 l 0.550333,0.196223 c 0.894334,0.318889 1.680092,0.834102 2.465502,1.616625 2.002485,1.995111 3.371749,5.399566 3.714759,9.236152 0.06863,0.767655 0.08683,12.522767 0.06628,42.798997 -0.02703,39.82378 -0.03537,41.7815 -0.181593,42.62967 -0.08429,0.48895 -0.280272,1.38661 -0.435534,1.99482 -1.048157,4.10592 -3.295599,7.02707 -5.922366,7.69769 -0.7353891,0.18774 -11.19263699,0.18194 -11.8990449,-0.007 z m 225.8998919,0.003 c -1.03641,-0.28204 -1.88909,-0.82359 -2.8094,-1.78429 -1.68739,-1.76144 -2.9079,-4.61492 -3.43532,-8.03161 -0.15109,-0.97882 -0.15684,-2.55567 -0.15684,-43.09534 0,-34.532964 0.0202,-42.231171 0.11261,-42.925996 0.69042,-5.191032 3.04842,-9.146168 6.03625,-10.124796 l 0.62448,-0.204538 h 5.50333 c 4.89749,0 5.55115,0.01548 5.93769,0.140589 3.12311,1.010878 5.359,4.585826 6.18704,9.892411 0.14463,0.926838 0.15194,3.001662 0.15194,43.13767 0,40.16785 -0.007,42.21009 -0.15223,43.13767 -0.77812,4.97675 -2.91607,8.56662 -5.78622,9.71576 l -0.58088,0.23257 -5.588,0.0171 c -4.68633,0.0143 -5.66166,-0.003 -6.04445,-0.10716 z M -13.656915,132.90579 c -5.290148,-0.89387 -10.044144,-5.36596 -13.010805,-12.23928 -3.059307,-7.08797 -3.907091,-15.93735 -2.306714,-24.078043 1.248733,-6.351973 3.955746,-11.928687 7.50967,-15.470667 2.736015,-2.726817 5.561084,-4.115045 9.014349,-4.429607 l 0.613833,-0.05591 v 28.202587 28.2026 l -0.5715,-0.009 c -0.314325,-0.005 -0.8763,-0.0601 -1.248833,-0.12306 z M 245.97342,104.8464 V 76.629739 l 0.5715,0.05544 c 1.74524,0.169299 2.98385,0.487299 4.30782,1.105992 8.75496,4.09122 14.14016,17.919886 12.51304,32.132299 -0.52125,4.553 -1.75806,8.85615 -3.58938,12.48833 -2.28623,4.53444 -5.10688,7.62017 -8.51131,9.31117 -1.64778,0.81846 -2.91484,1.18318 -4.46617,1.28558 l -0.8255,0.0545 z M 60.638086,102.7268 V 81.052133 h 56.599664 56.59967 V 102.7268 124.40147 H 117.23775 60.638086 Z"
         id="path153" />
    </g>
  </g>
</svg>
